<?xml version="1.0" encoding="utf-8"?>
<!-- Generator: Adobe Illustrator 22.0.0, SVG Export Plug-In . SVG Version: 6.00 Build 0) -->
<svg version="1.1" id="ar" xmlns="http://www.w3.org/2000/svg" xmlns:xlink="http://www.w3.org/1999/xlink" x="0px" y="0px" viewBox="0 0 358 222" style="enable-background:new 0 0 358 222;" xml:space="preserve">
	<style>
		path { fill: #4682B4; }
		@media (prefers-color-scheme: dark) {
			path { fill: #4682B4; }
		}
	</style>
	<path
		id="r"
		d="M207.2,222V-0.1h56.4c17.9,0,32,1.4,42.5,4.2c10.4,2.8,19.2,7.1,26.1,12.9c7,5.8,12.6,12.5,16.9,20.2
		c5.8,10.5,8.6,21.8,8.6,33.7c0,11.1-2.4,21.7-7.2,31.6c-4.8,9.9-12.3,18.1-22.4,24.7c-10.2,6.5-22.3,10.5-36.3,12l62.7,82.8h-28
		l-75.3-100.5c17-0.1,28-0.3,33-0.7c8.3-0.7,15.1-2,20.3-4c5.2-2,10.3-5.2,15.2-9.5c4.9-4.3,8.8-9.8,11.6-16.3
		c2.8-6.5,4.2-13.1,4.2-19.8c0-8.3-1.9-16-5.7-23.2s-8.6-12.8-14.5-16.9c-4.2-3-10.3-5.6-18.2-7.7c-7.9-2.1-17.6-3.1-29.2-3.1h-38.7
		V222H207.2z"
	/>
	<path
		id="a"
		d="M26,222H0.2L154.4,8.7h29.2l-92.7,127h96.5V222h-22v-66.8L76.2,155L26,222z"
	/>
</svg>
